<mxfile host="app.diagrams.net" modified="2023-09-19T23:53:14.817Z" agent="Mozilla/5.0 (Windows NT 10.0; Win64; x64) AppleWebKit/537.36 (KHTML, like Gecko) Chrome/116.0.0.0 Safari/537.36 OPR/102.0.0.0 (Edition std-1)" etag="O2NpWuZB2FztZYxO64xf" version="21.7.5" type="device">
  <diagram name="Page-1" id="uO4WU2xUQF11yqgrC2z3">
    <mxGraphModel dx="1161" dy="632" grid="1" gridSize="10" guides="1" tooltips="1" connect="1" arrows="1" fold="1" page="1" pageScale="1" pageWidth="850" pageHeight="1100" math="0" shadow="0">
      <root>
        <mxCell id="0" />
        <mxCell id="1" parent="0" />
        <mxCell id="HyTK3bV6QZ9SSNIowSkn-1" value="" style="ellipse;whiteSpace=wrap;html=1;aspect=fixed;fontSize=7;fillColor=#000000;" vertex="1" parent="1">
          <mxGeometry x="410" y="20" width="30" height="30" as="geometry" />
        </mxCell>
        <mxCell id="HyTK3bV6QZ9SSNIowSkn-2" value="" style="rounded=0;html=1;jettySize=auto;orthogonalLoop=1;fontSize=7;endArrow=block;endFill=0;endSize=8;strokeWidth=1;shadow=0;labelBackgroundColor=none;edgeStyle=orthogonalEdgeStyle;" edge="1" parent="1">
          <mxGeometry y="20" relative="1" as="geometry">
            <mxPoint as="offset" />
            <mxPoint x="424.79999999999995" y="50" as="sourcePoint" />
            <mxPoint x="424.79999999999995" y="90" as="targetPoint" />
          </mxGeometry>
        </mxCell>
        <mxCell id="HyTK3bV6QZ9SSNIowSkn-3" value="OLD MAN acorda" style="rounded=1;whiteSpace=wrap;html=1;fontSize=7;glass=0;strokeWidth=1;shadow=0;" vertex="1" parent="1">
          <mxGeometry x="345" y="90" width="160" height="40" as="geometry" />
        </mxCell>
        <mxCell id="HyTK3bV6QZ9SSNIowSkn-5" value="" style="ellipse;whiteSpace=wrap;html=1;aspect=fixed;fontSize=7;" vertex="1" parent="1">
          <mxGeometry x="410" y="160" width="30" height="30" as="geometry" />
        </mxCell>
        <mxCell id="HyTK3bV6QZ9SSNIowSkn-6" value="" style="ellipse;whiteSpace=wrap;html=1;aspect=fixed;fontSize=7;fillColor=#000000;" vertex="1" parent="1">
          <mxGeometry x="415" y="165" width="20" height="20" as="geometry" />
        </mxCell>
        <mxCell id="HyTK3bV6QZ9SSNIowSkn-8" value="" style="rounded=0;html=1;jettySize=auto;orthogonalLoop=1;fontSize=7;endArrow=block;endFill=0;endSize=8;strokeWidth=1;shadow=0;labelBackgroundColor=none;edgeStyle=orthogonalEdgeStyle;exitX=0.5;exitY=1;exitDx=0;exitDy=0;" edge="1" parent="1">
          <mxGeometry y="20" relative="1" as="geometry">
            <mxPoint as="offset" />
            <mxPoint x="425.0000000000001" y="130" as="sourcePoint" />
            <mxPoint x="425.0000000000001" y="160" as="targetPoint" />
          </mxGeometry>
        </mxCell>
      </root>
    </mxGraphModel>
  </diagram>
</mxfile>
